<svg xmlns="http://www.w3.org/2000/svg" width="388" height="302" style="
        width:388px;
        height:302px;
        background: white;
        fill: none;
">
        <svg xmlns="http://www.w3.org/2000/svg"><g><defs><pattern id=".6721955921625393" width="10" height="10" patternUnits="userSpaceOnUse"><path d="M 10 0 L 0 0 0 10" fill="none" stroke="lightgray" stroke-width="0.5"/></pattern></defs><rect width="100%" height="100%" fill="url(#.6721955921625393)" stroke="lightgray" stroke-width="0.5"/></g></svg>
        <svg xmlns="http://www.w3.org/2000/svg" class="role-diagram-draw-area"><g class="shapes-region" style="stroke: black; fill: none;"><g class="composite-shape"><path class="real" d=" M60,180 C60,146.86 86.86,120 120,120 C153.14,120 180,146.86 180,180 C180,213.14 153.14,240 120,240 C86.86,240 60,213.14 60,180 Z" style="stroke-width: 1; stroke: rgb(0, 0, 0); fill: rgb(255, 255, 255);"/></g><g class="composite-shape"><path class="real" d=" M200,110 C200,98.95 208.95,90 220,90 C231.05,90 240,98.95 240,110 C240,121.05 231.05,130 220,130 C208.95,130 200,121.05 200,110 Z" style="stroke-width: 1; stroke: rgb(0, 0, 0); fill: none;"/></g><g class="arrow-line"><path class="connection real" stroke-dasharray="" d="  M120,180 L178.71,137.51" style="stroke: rgb(74, 144, 226); stroke-width: 1; fill: none;"/><g stroke="rgba(74,144,226,1)" transform="matrix(-0.8100416404457957,0.5863723567357897,-0.5863723567357897,-0.8100416404457957,180.33333333333331,136.33333333333331)" style="stroke: rgb(74, 144, 226); stroke-width: 1;"><path d=" M10.93,-3.29 Q4.96,-0.45 0,0 Q4.96,0.45 10.93,3.29"/></g></g><g class="arrow-line"><path class="connection real" stroke-dasharray="" d="  M220,110 L182,135.23" style="stroke: rgb(74, 144, 226); stroke-width: 1; fill: none;"/><g stroke="rgba(74,144,226,1)" transform="matrix(0.8331143600534534,-0.5531007711735041,0.5531007711735041,0.8331143600534534,180.33333333333331,136.33333333333331)" style="stroke: rgb(74, 144, 226); stroke-width: 1;"><path d=" M10.93,-3.29 Q4.96,-0.45 0,0 Q4.96,0.45 10.93,3.29"/></g></g><g class="composite-shape"><path class="real" d=" M213.97,102.94 Q210.06,97.14 204.26,101.05 L168.39,125.25 Q160.1,130.84 156.18,125.03 Q160.1,130.84 151.81,136.43 M154.29,134.75 L115.94,160.62 Q110.14,164.54 114.05,170.34" style="stroke-width: 1; stroke: rgb(0, 0, 0); fill: none;"/><!-- react-text: 873 -->/&gt;<!-- /react-text --></g><g class="intersections-group"><g style="stroke: rgb(0, 0, 0); stroke-width: 1; fill: none;"/></g></g><g/><g/><!-- react-empty: 878 --></svg>
        <svg xmlns="http://www.w3.org/2000/svg" width="386" height="300" style="width:386px;height:300px;font-family:Asana-Math, Asana;background:white;"><g><g><g style="transform:matrix(1,0,0,1,181.328125,217.4046875);"><path d="M730 103L704 86C675 67 653 56 643 56C636 56 630 65 630 76C630 86 632 95 637 116L712 413C716 430 719 446 719 454C719 471 709 482 693 482C664 482 626 464 565 421C502 376 467 341 418 272L448 409C452 429 455 444 455 451C455 470 445 482 429 482C399 482 353 460 298 418C254 384 234 363 169 275L202 408C206 424 208 439 208 451C208 470 199 482 185 482C164 482 126 461 52 408L24 388L31 368C68 391 103 414 110 414C121 414 128 404 128 389C128 338 87 145 46 2L49 -9L117 6L139 108C163 219 190 278 245 338C287 384 332 414 360 414C367 414 371 406 371 393C371 358 349 244 308 69L292 2L297 -9L366 6L387 113C403 194 437 269 481 318C536 379 586 414 618 414C626 414 631 405 631 389C631 365 628 351 606 264C566 105 550 84 550 31C550 6 561 -9 580 -9C606 -9 642 12 740 85Z" stroke="rgb(0, 0, 0)" stroke-width="8" fill="rgb(0, 0, 0)" style="transform:matrix(0.0136,0,0,-0.0136,0,0);"></path></g><g><g><g><g style="transform:matrix(1,0,0,1,191.890625,221.7153125);"><path d="M418 -3L418 27L366 30C311 33 301 44 301 96L301 700L60 598L67 548L217 614L217 96C217 44 206 33 152 30L96 27L96 -3C250 0 250 0 261 0C292 0 402 -3 418 -3Z" stroke="rgb(0, 0, 0)" stroke-width="8" fill="rgb(0, 0, 0)" style="transform:matrix(0.009519999999999999,0,0,-0.009519999999999999,0,0);"></path></g></g></g></g></g></g><g><g><g style="transform:matrix(1,0,0,1,238.328125,132.4046875);"><path d="M730 103L704 86C675 67 653 56 643 56C636 56 630 65 630 76C630 86 632 95 637 116L712 413C716 430 719 446 719 454C719 471 709 482 693 482C664 482 626 464 565 421C502 376 467 341 418 272L448 409C452 429 455 444 455 451C455 470 445 482 429 482C399 482 353 460 298 418C254 384 234 363 169 275L202 408C206 424 208 439 208 451C208 470 199 482 185 482C164 482 126 461 52 408L24 388L31 368C68 391 103 414 110 414C121 414 128 404 128 389C128 338 87 145 46 2L49 -9L117 6L139 108C163 219 190 278 245 338C287 384 332 414 360 414C367 414 371 406 371 393C371 358 349 244 308 69L292 2L297 -9L366 6L387 113C403 194 437 269 481 318C536 379 586 414 618 414C626 414 631 405 631 389C631 365 628 351 606 264C566 105 550 84 550 31C550 6 561 -9 580 -9C606 -9 642 12 740 85Z" stroke="rgb(0, 0, 0)" stroke-width="8" fill="rgb(0, 0, 0)" style="transform:matrix(0.0136,0,0,-0.0136,0,0);"></path></g><g><g><g><g style="transform:matrix(1,0,0,1,248.890625,136.7153125);"><path d="M16 23L16 -3C203 -3 203 0 239 0C275 0 275 -3 468 -3L468 82C353 77 307 81 122 77L304 270C401 373 431 428 431 503C431 618 353 689 226 689C154 689 105 669 56 619L39 483L68 483L81 529C97 587 133 612 200 612C286 612 341 558 341 473C341 398 299 324 186 204Z" stroke="rgb(0, 0, 0)" stroke-width="8" fill="rgb(0, 0, 0)" style="transform:matrix(0.009519999999999999,0,0,-0.009519999999999999,0,0);"></path></g></g></g></g></g></g><g><g><g style="transform:matrix(1,0,0,1,146.78125,122.1);"><path d="M368 365C371 403 376 435 384 476C373 481 369 482 364 482C333 482 302 458 266 407C227 351 188 291 172 256L204 408C208 425 210 438 210 450C210 470 202 482 187 482C166 482 128 461 54 408L26 388L33 368L65 389C93 407 104 412 113 412C123 412 130 403 130 390C130 332 87 126 47 -2L57 -9C72 -4 88 -1 111 4L124 6L150 126C168 209 191 262 235 319C269 363 296 384 318 384C333 384 343 379 354 365Z" stroke="rgb(0, 0, 0)" stroke-width="8" fill="rgb(0, 0, 0)" style="transform:matrix(0.0136,0,0,-0.0136,0,0);"></path></g></g></g></svg>
</svg>
