<svg xmlns="http://www.w3.org/2000/svg" width="388" height="262" style="
        width:388px;
        height:262px;
        background: white;
        fill: none;
">
        <svg xmlns="http://www.w3.org/2000/svg"><g><defs><pattern id=".2941293537017946" width="10" height="10" patternUnits="userSpaceOnUse"><path d="M 10 0 L 0 0 0 10" fill="none" stroke="lightgray" stroke-width="0.5"/></pattern></defs><rect width="100%" height="100%" fill="url(#.2941293537017946)" stroke="lightgray" stroke-width="0.5"/></g></svg>
        <svg xmlns="http://www.w3.org/2000/svg" class="role-diagram-draw-area"><g class="shapes-region" style="stroke: black; fill: none;"><g class="composite-shape"><path class="real" d=" M40,30 L120,30 L120,110 L40,110 Z" style="stroke-width: 1; stroke: rgb(0, 0, 0); fill: none;"/></g><g class="arrow-line"><path class="connection real" stroke-dasharray="" d="  M80,90 L138,90" style="stroke: rgb(208, 2, 27); stroke-width: 1; fill: none;"/><g stroke="rgba(208,2,27,1)" transform="matrix(-1,1.2246467991473532e-16,-1.2246467991473532e-16,-1,140,90.00000000000001)" style="stroke: rgb(208, 2, 27); stroke-width: 1;"><path d=" M10.93,-3.29 Q4.96,-0.45 0,0 Q4.96,0.45 10.93,3.29"/></g></g><g class="arrow-line"><path class="connection real" stroke-dasharray="" d="  M80,80 L168,80" style="stroke: rgb(74, 144, 226); stroke-width: 1; fill: none;"/><g stroke="rgba(74,144,226,1)" transform="matrix(-1,1.2246467991473532e-16,-1.2246467991473532e-16,-1,170,80.00000000000001)" style="stroke: rgb(74, 144, 226); stroke-width: 1;"><path d=" M10.93,-3.29 Q4.96,-0.45 0,0 Q4.96,0.45 10.93,3.29"/></g></g><g class="arrow-line"><path class="connection real" stroke-dasharray="" d="  M80,70 L138,70" style="stroke: rgb(208, 2, 27); stroke-width: 1; fill: none;"/><g stroke="rgba(208,2,27,1)" transform="matrix(-1,1.2246467991473532e-16,-1.2246467991473532e-16,-1,140,70.00000000000001)" style="stroke: rgb(208, 2, 27); stroke-width: 1;"><path d=" M10.93,-3.29 Q4.96,-0.45 0,0 Q4.96,0.45 10.93,3.29"/></g></g><g class="arrow-line"><path class="connection real" stroke-dasharray="" d="  M140,70 L228,70" style="stroke: rgb(74, 144, 226); stroke-width: 1; fill: none;"/><g stroke="rgba(74,144,226,1)" transform="matrix(-1,1.2246467991473532e-16,-1.2246467991473532e-16,-1,230,70)" style="stroke: rgb(74, 144, 226); stroke-width: 1;"><path d=" M10.93,-3.29 Q4.96,-0.45 0,0 Q4.96,0.45 10.93,3.29"/></g></g><g class="composite-shape"><path class="real" d=" M230.18,59.95 Q230.17,52.95 223.17,52.95 L162.58,53.02 Q152.58,53.03 152.57,46.03 Q152.58,53.03 142.58,53.04 M145.58,53.03 L87.25,53.09 Q80.25,53.1 80.26,60.1" style="stroke-width: 1; stroke: rgb(0, 0, 0); fill: none;"/><!-- react-text: 19204 -->/&gt;<!-- /react-text --></g><g class="composite-shape"><path class="real" d=" M40,140 L120,140 L120,220 L40,220 Z" style="stroke-width: 1; stroke: rgb(0, 0, 0); fill: none;"/></g><g class="arrow-line"><path class="connection real" stroke-dasharray="" d="  M80,180 L208,180" style="stroke: rgb(208, 2, 27); stroke-width: 1; fill: none;"/><g stroke="rgba(208,2,27,1)" transform="matrix(-1,1.2246467991473532e-16,-1.2246467991473532e-16,-1,209.99999999999997,180.00000000000003)" style="stroke: rgb(208, 2, 27); stroke-width: 1;"><path d=" M10.93,-3.29 Q4.96,-0.45 0,0 Q4.96,0.45 10.93,3.29"/></g></g><g class="arrow-line"><path class="connection real" stroke-dasharray="" d="  M80,180 L22,180" style="stroke: rgb(74, 144, 226); stroke-width: 1; fill: none;"/><g stroke="rgba(74,144,226,1)" transform="matrix(1,-2.4492935982947064e-16,2.4492935982947064e-16,1,20,180)" style="stroke: rgb(74, 144, 226); stroke-width: 1;"><path d=" M10.93,-3.29 Q4.96,-0.45 0,0 Q4.96,0.45 10.93,3.29"/></g></g><g class="arrow-line"><path class="connection real" stroke-dasharray="" d="  M80,200 L148,200" style="stroke: rgb(208, 2, 27); stroke-width: 1; fill: none;"/><g stroke="rgba(208,2,27,1)" transform="matrix(-1,1.2246467991473532e-16,-1.2246467991473532e-16,-1,149.99999999999997,200.00000000000003)" style="stroke: rgb(208, 2, 27); stroke-width: 1;"><path d=" M10.93,-3.29 Q4.96,-0.45 0,0 Q4.96,0.45 10.93,3.29"/></g></g><g class="arrow-line"><path class="connection real" stroke-dasharray="" d="  M210,200 L152,200" style="stroke: rgb(74, 144, 226); stroke-width: 1; fill: none;"/><g stroke="rgba(74,144,226,1)" transform="matrix(1,-2.4492935982947064e-16,2.4492935982947064e-16,1,150,200)" style="stroke: rgb(74, 144, 226); stroke-width: 1;"><path d=" M10.93,-3.29 Q4.96,-0.45 0,0 Q4.96,0.45 10.93,3.29"/></g></g><g class="composite-shape"><path class="real" d=" M80,210.11 Q79.98,217.11 86.98,217.13 L105.04,217.19 Q115.04,217.22 115.02,224.22 Q115.04,217.22 125.04,217.25 M122.04,217.24 L143.1,217.31 Q150.1,217.33 150.12,210.33" style="stroke-width: 1; stroke: rgb(0, 0, 0); fill: none;"/><!-- react-text: 40102 -->/&gt;<!-- /react-text --></g><g class="intersections-group"><g style="stroke: rgb(0, 0, 0); stroke-width: 1; fill: none;"/></g></g><g/><g/><!-- react-empty: 9804 --></svg>
        <svg xmlns="http://www.w3.org/2000/svg" width="386" height="260" style="width:386px;height:260px;font-family:Asana-Math, Asana;background:white;"><g><g><g><g><g><g style="transform:matrix(1,0,0,1,141.8359375,105.4046875);"><path d="M286 646L392 650C454 650 494 641 495 626L503 537L527 537C530 600 537 651 548 689C526 691 498 692 481 692L440 691L275 689L246 689C221 689 181 690 143 691L94 692L91 664L147 662C171 661 182 652 182 635C182 621 178 589 173 559L98 125C81 33 81 32 40 28L4 25L0 -3L34 -2C74 -1 106 0 127 0C145 0 174 -1 213 -2L265 -3L268 25L204 28C177 29 168 37 168 57C168 63 169 74 170 78L206 301L323 301C350 301 381 300 429 298L455 297L474 342L470 349C389 345 329 343 251 343L214 343L260 614C263 630 264 635 269 646Z" stroke="rgb(208, 2, 27)" stroke-width="8" fill="rgb(208, 2, 27)" style="transform:matrix(0.0136,0,0,-0.0136,0,0);"></path></g><g><g><g><g style="transform:matrix(1,0,0,1,149.3828125,109.7153125);"><path d="M418 -3L418 27L366 30C311 33 301 44 301 96L301 700L60 598L67 548L217 614L217 96C217 44 206 33 152 30L96 27L96 -3C250 0 250 0 261 0C292 0 402 -3 418 -3Z" stroke="rgb(208, 2, 27)" stroke-width="8" fill="rgb(208, 2, 27)" style="transform:matrix(0.009519999999999999,0,0,-0.009519999999999999,0,0);"></path></g></g></g></g></g></g><svg x="141.8359375" style="overflow:visible;" y="89.8046875" height="7" width="13"><path d=" M 13.00 2.95 l -2.80 -2.95 l -0.44 0.46 l 1.71 2.07 h -0.14 v 0.80 h 0.14 l -1.71 2.07 l 0.44 0.46 z  M 0.00 3.29 h 11.50 v -0.80 h -11.50 z" style="fill:rgb(208, 2, 27);stroke-width:1px;stroke:none;"></path></svg></g></g></g><g><g><g><g><g><g style="transform:matrix(1,0,0,1,171.8359375,95.4046875);"><path d="M286 646L392 650C454 650 494 641 495 626L503 537L527 537C530 600 537 651 548 689C526 691 498 692 481 692L440 691L275 689L246 689C221 689 181 690 143 691L94 692L91 664L147 662C171 661 182 652 182 635C182 621 178 589 173 559L98 125C81 33 81 32 40 28L4 25L0 -3L34 -2C74 -1 106 0 127 0C145 0 174 -1 213 -2L265 -3L268 25L204 28C177 29 168 37 168 57C168 63 169 74 170 78L206 301L323 301C350 301 381 300 429 298L455 297L474 342L470 349C389 345 329 343 251 343L214 343L260 614C263 630 264 635 269 646Z" stroke="rgb(74, 144, 226)" stroke-width="8" fill="rgb(74, 144, 226)" style="transform:matrix(0.0136,0,0,-0.0136,0,0);"></path></g><g><g><g><g style="transform:matrix(1,0,0,1,179.3828125,99.7153125);"><path d="M16 23L16 -3C203 -3 203 0 239 0C275 0 275 -3 468 -3L468 82C353 77 307 81 122 77L304 270C401 373 431 428 431 503C431 618 353 689 226 689C154 689 105 669 56 619L39 483L68 483L81 529C97 587 133 612 200 612C286 612 341 558 341 473C341 398 299 324 186 204Z" stroke="rgb(74, 144, 226)" stroke-width="8" fill="rgb(74, 144, 226)" style="transform:matrix(0.009519999999999999,0,0,-0.009519999999999999,0,0);"></path></g></g></g></g></g></g><svg x="171.8359375" style="overflow:visible;" y="79.8046875" height="7" width="13"><path d=" M 13.00 2.95 l -2.80 -2.95 l -0.44 0.46 l 1.71 2.07 h -0.14 v 0.80 h 0.14 l -1.71 2.07 l 0.44 0.46 z  M 0.00 3.29 h 11.50 v -0.80 h -11.50 z" style="fill:rgb(74, 144, 226);stroke-width:1px;stroke:none;"></path></svg></g></g></g><g><g><g><g><g><g style="transform:matrix(1,0,0,1,144.171875,37.4046875);"><path d="M286 646L392 650C454 650 494 641 495 626L503 537L527 537C530 600 537 651 548 689C526 691 498 692 481 692L440 691L275 689L246 689C221 689 181 690 143 691L94 692L91 664L147 662C171 661 182 652 182 635C182 621 178 589 173 559L98 125C81 33 81 32 40 28L4 25L0 -3L34 -2C74 -1 106 0 127 0C145 0 174 -1 213 -2L265 -3L268 25L204 28C177 29 168 37 168 57C168 63 169 74 170 78L206 301L323 301C350 301 381 300 429 298L455 297L474 342L470 349C389 345 329 343 251 343L214 343L260 614C263 630 264 635 269 646Z" stroke="rgb(0, 0, 0)" stroke-width="8" fill="rgb(0, 0, 0)" style="transform:matrix(0.0136,0,0,-0.0136,0,0);"></path></g><g><g><g><g style="transform:matrix(1,0,0,1,151.71875,39.715312499999996);"><path d="M368 365C371 403 376 435 384 476C373 481 369 482 364 482C333 482 302 458 266 407C227 351 188 291 172 256L204 408C208 425 210 438 210 450C210 470 202 482 187 482C166 482 128 461 54 408L26 388L33 368L65 389C93 407 104 412 113 412C123 412 130 403 130 390C130 332 87 126 47 -2L57 -9C72 -4 88 -1 111 4L124 6L150 126C168 209 191 262 235 319C269 363 296 384 318 384C333 384 343 379 354 365ZM716 111L692 94C639 56 591 36 555 36C508 36 479 73 479 133C479 158 482 185 487 214C504 218 613 248 638 259C723 296 762 342 762 404C762 451 728 482 678 482C610 496 500 423 463 349C433 299 403 180 403 113C403 35 447 -11 519 -11C576 -11 632 17 724 92ZM501 274C518 343 538 386 567 412C585 428 616 440 640 440C669 440 688 420 688 388C688 344 653 297 601 272C573 258 537 247 492 237ZM807 148C802 97 796 62 785 16C823 -2 857 -11 892 -11C941 -11 987 7 1038 47C1089 87 1110 124 1110 174C1110 228 1078 257 1004 271L961 279C901 290 882 307 882 348C882 401 927 442 984 442C1025 442 1063 424 1079 397L1079 342L1102 342C1106 377 1110 404 1121 455C1082 474 1054 482 1021 482C969 482 908 452 860 404C834 377 823 352 823 316C823 260 854 228 920 215L983 203C1027 195 1043 177 1043 138C1043 73 997 29 926 29C891 29 860 40 832 64L832 148Z" stroke="rgb(0, 0, 0)" stroke-width="8" fill="rgb(0, 0, 0)" style="transform:matrix(0.009519999999999999,0,0,-0.009519999999999999,0,0);"></path></g></g></g></g></g></g><svg x="144.171875" style="overflow:visible;" y="21.8046875" height="7" width="19.328125"><path d=" M 19.33 2.95 l -2.80 -2.95 l -0.44 0.46 l 1.71 2.07 h -0.14 v 0.80 h 0.14 l -1.71 2.07 l 0.44 0.46 z  M 0.00 3.29 h 17.83 v -0.80 h -17.83 z" style="fill:rgb(0, 0, 0);stroke-width:1px;stroke:none;"></path></svg></g></g></g><g><g><g><g><g><g style="transform:matrix(1,0,0,1,251.953125,83.4046875);"><path d="M286 646L392 650C454 650 494 641 495 626L503 537L527 537C530 600 537 651 548 689C526 691 498 692 481 692L440 691L275 689L246 689C221 689 181 690 143 691L94 692L91 664L147 662C171 661 182 652 182 635C182 621 178 589 173 559L98 125C81 33 81 32 40 28L4 25L0 -3L34 -2C74 -1 106 0 127 0C145 0 174 -1 213 -2L265 -3L268 25L204 28C177 29 168 37 168 57C168 63 169 74 170 78L206 301L323 301C350 301 381 300 429 298L455 297L474 342L470 349C389 345 329 343 251 343L214 343L260 614C263 630 264 635 269 646Z" stroke="rgb(0, 0, 0)" stroke-width="8" fill="rgb(0, 0, 0)" style="transform:matrix(0.0136,0,0,-0.0136,0,0);"></path></g><g><g><g><g style="transform:matrix(1,0,0,1,259.5,85.7153125);"><path d="M368 365C371 403 376 435 384 476C373 481 369 482 364 482C333 482 302 458 266 407C227 351 188 291 172 256L204 408C208 425 210 438 210 450C210 470 202 482 187 482C166 482 128 461 54 408L26 388L33 368L65 389C93 407 104 412 113 412C123 412 130 403 130 390C130 332 87 126 47 -2L57 -9C72 -4 88 -1 111 4L124 6L150 126C168 209 191 262 235 319C269 363 296 384 318 384C333 384 343 379 354 365ZM716 111L692 94C639 56 591 36 555 36C508 36 479 73 479 133C479 158 482 185 487 214C504 218 613 248 638 259C723 296 762 342 762 404C762 451 728 482 678 482C610 496 500 423 463 349C433 299 403 180 403 113C403 35 447 -11 519 -11C576 -11 632 17 724 92ZM501 274C518 343 538 386 567 412C585 428 616 440 640 440C669 440 688 420 688 388C688 344 653 297 601 272C573 258 537 247 492 237ZM807 148C802 97 796 62 785 16C823 -2 857 -11 892 -11C941 -11 987 7 1038 47C1089 87 1110 124 1110 174C1110 228 1078 257 1004 271L961 279C901 290 882 307 882 348C882 401 927 442 984 442C1025 442 1063 424 1079 397L1079 342L1102 342C1106 377 1110 404 1121 455C1082 474 1054 482 1021 482C969 482 908 452 860 404C834 377 823 352 823 316C823 260 854 228 920 215L983 203C1027 195 1043 177 1043 138C1043 73 997 29 926 29C891 29 860 40 832 64L832 148Z" stroke="rgb(0, 0, 0)" stroke-width="8" fill="rgb(0, 0, 0)" style="transform:matrix(0.009519999999999999,0,0,-0.009519999999999999,0,0);"></path></g></g></g></g></g></g><svg x="251.953125" style="overflow:visible;" y="67.8046875" height="7" width="19.328125"><path d=" M 19.33 2.95 l -2.80 -2.95 l -0.44 0.46 l 1.71 2.07 h -0.14 v 0.80 h 0.14 l -1.71 2.07 l 0.44 0.46 z  M 0.00 3.29 h 17.83 v -0.80 h -17.83 z" style="fill:rgb(0, 0, 0);stroke-width:1px;stroke:none;"></path></svg></g><g style="transform:matrix(1,0,0,1,274.609375,83.4046875);"><path d="M604 347L604 406L65 406L65 347ZM604 134L604 193L65 193L65 134Z" stroke="rgb(0, 0, 0)" stroke-width="8" fill="rgb(0, 0, 0)" style="transform:matrix(0.0136,0,0,-0.0136,0,0);"></path></g><g><g><g><g style="transform:matrix(1,0,0,1,287.6875,83.4046875);"><path d="M286 646L392 650C454 650 494 641 495 626L503 537L527 537C530 600 537 651 548 689C526 691 498 692 481 692L440 691L275 689L246 689C221 689 181 690 143 691L94 692L91 664L147 662C171 661 182 652 182 635C182 621 178 589 173 559L98 125C81 33 81 32 40 28L4 25L0 -3L34 -2C74 -1 106 0 127 0C145 0 174 -1 213 -2L265 -3L268 25L204 28C177 29 168 37 168 57C168 63 169 74 170 78L206 301L323 301C350 301 381 300 429 298L455 297L474 342L470 349C389 345 329 343 251 343L214 343L260 614C263 630 264 635 269 646Z" stroke="rgb(0, 0, 0)" stroke-width="8" fill="rgb(0, 0, 0)" style="transform:matrix(0.0136,0,0,-0.0136,0,0);"></path></g><g><g><g><g style="transform:matrix(1,0,0,1,295.234375,87.7153125);"><path d="M418 -3L418 27L366 30C311 33 301 44 301 96L301 700L60 598L67 548L217 614L217 96C217 44 206 33 152 30L96 27L96 -3C250 0 250 0 261 0C292 0 402 -3 418 -3Z" stroke="rgb(0, 0, 0)" stroke-width="8" fill="rgb(0, 0, 0)" style="transform:matrix(0.009519999999999999,0,0,-0.009519999999999999,0,0);"></path></g></g></g></g></g></g><svg x="287.6875" style="overflow:visible;" y="67.8046875" height="7" width="13"><path d=" M 13.00 2.95 l -2.80 -2.95 l -0.44 0.46 l 1.71 2.07 h -0.14 v 0.80 h 0.14 l -1.71 2.07 l 0.44 0.46 z  M 0.00 3.29 h 11.50 v -0.80 h -11.50 z" style="fill:rgb(0, 0, 0);stroke-width:1px;stroke:none;"></path></svg></g><g style="transform:matrix(1,0,0,1,302.015625,83.4046875);"><path d="M604 241L604 300L364 300L364 538L305 538L305 300L65 300L65 241L305 241L305 0L364 0L364 241Z" stroke="rgb(0, 0, 0)" stroke-width="8" fill="rgb(0, 0, 0)" style="transform:matrix(0.0136,0,0,-0.0136,0,0);"></path></g><g><g><g><g style="transform:matrix(1,0,0,1,313.09375,83.4046875);"><path d="M286 646L392 650C454 650 494 641 495 626L503 537L527 537C530 600 537 651 548 689C526 691 498 692 481 692L440 691L275 689L246 689C221 689 181 690 143 691L94 692L91 664L147 662C171 661 182 652 182 635C182 621 178 589 173 559L98 125C81 33 81 32 40 28L4 25L0 -3L34 -2C74 -1 106 0 127 0C145 0 174 -1 213 -2L265 -3L268 25L204 28C177 29 168 37 168 57C168 63 169 74 170 78L206 301L323 301C350 301 381 300 429 298L455 297L474 342L470 349C389 345 329 343 251 343L214 343L260 614C263 630 264 635 269 646Z" stroke="rgb(0, 0, 0)" stroke-width="8" fill="rgb(0, 0, 0)" style="transform:matrix(0.0136,0,0,-0.0136,0,0);"></path></g><g><g><g><g style="transform:matrix(1,0,0,1,320.640625,87.7153125);"><path d="M16 23L16 -3C203 -3 203 0 239 0C275 0 275 -3 468 -3L468 82C353 77 307 81 122 77L304 270C401 373 431 428 431 503C431 618 353 689 226 689C154 689 105 669 56 619L39 483L68 483L81 529C97 587 133 612 200 612C286 612 341 558 341 473C341 398 299 324 186 204Z" stroke="rgb(0, 0, 0)" stroke-width="8" fill="rgb(0, 0, 0)" style="transform:matrix(0.009519999999999999,0,0,-0.009519999999999999,0,0);"></path></g></g></g></g></g></g><svg x="313.09375" style="overflow:visible;" y="67.8046875" height="7" width="13"><path d=" M 13.00 2.95 l -2.80 -2.95 l -0.44 0.46 l 1.71 2.07 h -0.14 v 0.80 h 0.14 l -1.71 2.07 l 0.44 0.46 z  M 0.00 3.29 h 11.50 v -0.80 h -11.50 z" style="fill:rgb(0, 0, 0);stroke-width:1px;stroke:none;"></path></svg></g></g></g><g><g><g style="transform:matrix(1,0,0,1,251.953125,103.4046875);"><path d="M286 646L392 650C454 650 494 641 495 626L503 537L527 537C530 600 537 651 548 689C526 691 498 692 481 692L440 691L275 689L246 689C221 689 181 690 143 691L94 692L91 664L147 662C171 661 182 652 182 635C182 621 178 589 173 559L98 125C81 33 81 32 40 28L4 25L0 -3L34 -2C74 -1 106 0 127 0C145 0 174 -1 213 -2L265 -3L268 25L204 28C177 29 168 37 168 57C168 63 169 74 170 78L206 301L323 301C350 301 381 300 429 298L455 297L474 342L470 349C389 345 329 343 251 343L214 343L260 614C263 630 264 635 269 646Z" stroke="rgb(0, 0, 0)" stroke-width="8" fill="rgb(0, 0, 0)" style="transform:matrix(0.0136,0,0,-0.0136,0,0);"></path></g><g><g><g><g style="transform:matrix(1,0,0,1,259.5,105.7153125);"><path d="M368 365C371 403 376 435 384 476C373 481 369 482 364 482C333 482 302 458 266 407C227 351 188 291 172 256L204 408C208 425 210 438 210 450C210 470 202 482 187 482C166 482 128 461 54 408L26 388L33 368L65 389C93 407 104 412 113 412C123 412 130 403 130 390C130 332 87 126 47 -2L57 -9C72 -4 88 -1 111 4L124 6L150 126C168 209 191 262 235 319C269 363 296 384 318 384C333 384 343 379 354 365ZM716 111L692 94C639 56 591 36 555 36C508 36 479 73 479 133C479 158 482 185 487 214C504 218 613 248 638 259C723 296 762 342 762 404C762 451 728 482 678 482C610 496 500 423 463 349C433 299 403 180 403 113C403 35 447 -11 519 -11C576 -11 632 17 724 92ZM501 274C518 343 538 386 567 412C585 428 616 440 640 440C669 440 688 420 688 388C688 344 653 297 601 272C573 258 537 247 492 237ZM807 148C802 97 796 62 785 16C823 -2 857 -11 892 -11C941 -11 987 7 1038 47C1089 87 1110 124 1110 174C1110 228 1078 257 1004 271L961 279C901 290 882 307 882 348C882 401 927 442 984 442C1025 442 1063 424 1079 397L1079 342L1102 342C1106 377 1110 404 1121 455C1082 474 1054 482 1021 482C969 482 908 452 860 404C834 377 823 352 823 316C823 260 854 228 920 215L983 203C1027 195 1043 177 1043 138C1043 73 997 29 926 29C891 29 860 40 832 64L832 148Z" stroke="rgb(0, 0, 0)" stroke-width="8" fill="rgb(0, 0, 0)" style="transform:matrix(0.009519999999999999,0,0,-0.009519999999999999,0,0);"></path></g></g></g></g><g style="transform:matrix(1,0,0,1,274.59375,103.4046875);"><path d="M604 347L604 406L65 406L65 347ZM604 134L604 193L65 193L65 134Z" stroke="rgb(0, 0, 0)" stroke-width="8" fill="rgb(0, 0, 0)" style="transform:matrix(0.0136,0,0,-0.0136,0,0);"></path></g><g style="transform:matrix(1,0,0,1,287.671875,103.4046875);"><path d="M286 646L392 650C454 650 494 641 495 626L503 537L527 537C530 600 537 651 548 689C526 691 498 692 481 692L440 691L275 689L246 689C221 689 181 690 143 691L94 692L91 664L147 662C171 661 182 652 182 635C182 621 178 589 173 559L98 125C81 33 81 32 40 28L4 25L0 -3L34 -2C74 -1 106 0 127 0C145 0 174 -1 213 -2L265 -3L268 25L204 28C177 29 168 37 168 57C168 63 169 74 170 78L206 301L323 301C350 301 381 300 429 298L455 297L474 342L470 349C389 345 329 343 251 343L214 343L260 614C263 630 264 635 269 646Z" stroke="rgb(0, 0, 0)" stroke-width="8" fill="rgb(0, 0, 0)" style="transform:matrix(0.0136,0,0,-0.0136,0,0);"></path></g><g><g><g><g style="transform:matrix(1,0,0,1,295.21875,107.7153125);"><path d="M418 -3L418 27L366 30C311 33 301 44 301 96L301 700L60 598L67 548L217 614L217 96C217 44 206 33 152 30L96 27L96 -3C250 0 250 0 261 0C292 0 402 -3 418 -3Z" stroke="rgb(0, 0, 0)" stroke-width="8" fill="rgb(0, 0, 0)" style="transform:matrix(0.009519999999999999,0,0,-0.009519999999999999,0,0);"></path></g></g></g></g><g style="transform:matrix(1,0,0,1,301.984375,103.4046875);"><path d="M604 241L604 300L364 300L364 538L305 538L305 300L65 300L65 241L305 241L305 0L364 0L364 241Z" stroke="rgb(0, 0, 0)" stroke-width="8" fill="rgb(0, 0, 0)" style="transform:matrix(0.0136,0,0,-0.0136,0,0);"></path></g><g style="transform:matrix(1,0,0,1,313.0625,103.4046875);"><path d="M286 646L392 650C454 650 494 641 495 626L503 537L527 537C530 600 537 651 548 689C526 691 498 692 481 692L440 691L275 689L246 689C221 689 181 690 143 691L94 692L91 664L147 662C171 661 182 652 182 635C182 621 178 589 173 559L98 125C81 33 81 32 40 28L4 25L0 -3L34 -2C74 -1 106 0 127 0C145 0 174 -1 213 -2L265 -3L268 25L204 28C177 29 168 37 168 57C168 63 169 74 170 78L206 301L323 301C350 301 381 300 429 298L455 297L474 342L470 349C389 345 329 343 251 343L214 343L260 614C263 630 264 635 269 646Z" stroke="rgb(0, 0, 0)" stroke-width="8" fill="rgb(0, 0, 0)" style="transform:matrix(0.0136,0,0,-0.0136,0,0);"></path></g><g><g><g><g style="transform:matrix(1,0,0,1,320.609375,107.7153125);"><path d="M16 23L16 -3C203 -3 203 0 239 0C275 0 275 -3 468 -3L468 82C353 77 307 81 122 77L304 270C401 373 431 428 431 503C431 618 353 689 226 689C154 689 105 669 56 619L39 483L68 483L81 529C97 587 133 612 200 612C286 612 341 558 341 473C341 398 299 324 186 204Z" stroke="rgb(0, 0, 0)" stroke-width="8" fill="rgb(0, 0, 0)" style="transform:matrix(0.009519999999999999,0,0,-0.009519999999999999,0,0);"></path></g></g></g></g></g></g><g><g><g><g><g><g style="transform:matrix(1,0,0,1,15.8359375,165.4046875);"><path d="M286 646L392 650C454 650 494 641 495 626L503 537L527 537C530 600 537 651 548 689C526 691 498 692 481 692L440 691L275 689L246 689C221 689 181 690 143 691L94 692L91 664L147 662C171 661 182 652 182 635C182 621 178 589 173 559L98 125C81 33 81 32 40 28L4 25L0 -3L34 -2C74 -1 106 0 127 0C145 0 174 -1 213 -2L265 -3L268 25L204 28C177 29 168 37 168 57C168 63 169 74 170 78L206 301L323 301C350 301 381 300 429 298L455 297L474 342L470 349C389 345 329 343 251 343L214 343L260 614C263 630 264 635 269 646Z" stroke="rgb(74, 144, 226)" stroke-width="8" fill="rgb(74, 144, 226)" style="transform:matrix(0.0136,0,0,-0.0136,0,0);"></path></g><g><g><g><g style="transform:matrix(1,0,0,1,23.3828125,169.7153125);"><path d="M16 23L16 -3C203 -3 203 0 239 0C275 0 275 -3 468 -3L468 82C353 77 307 81 122 77L304 270C401 373 431 428 431 503C431 618 353 689 226 689C154 689 105 669 56 619L39 483L68 483L81 529C97 587 133 612 200 612C286 612 341 558 341 473C341 398 299 324 186 204Z" stroke="rgb(74, 144, 226)" stroke-width="8" fill="rgb(74, 144, 226)" style="transform:matrix(0.009519999999999999,0,0,-0.009519999999999999,0,0);"></path></g></g></g></g></g></g><svg x="15.8359375" style="overflow:visible;" y="149.8046875" height="7" width="13"><path d=" M 13.00 2.95 l -2.80 -2.95 l -0.44 0.46 l 1.71 2.07 h -0.14 v 0.80 h 0.14 l -1.71 2.07 l 0.44 0.46 z  M 0.00 3.29 h 11.50 v -0.80 h -11.50 z" style="fill:rgb(74, 144, 226);stroke-width:1px;stroke:none;"></path></svg></g></g></g><g><g><g><g><g><g style="transform:matrix(1,0,0,1,191.8359375,165.4046875);"><path d="M286 646L392 650C454 650 494 641 495 626L503 537L527 537C530 600 537 651 548 689C526 691 498 692 481 692L440 691L275 689L246 689C221 689 181 690 143 691L94 692L91 664L147 662C171 661 182 652 182 635C182 621 178 589 173 559L98 125C81 33 81 32 40 28L4 25L0 -3L34 -2C74 -1 106 0 127 0C145 0 174 -1 213 -2L265 -3L268 25L204 28C177 29 168 37 168 57C168 63 169 74 170 78L206 301L323 301C350 301 381 300 429 298L455 297L474 342L470 349C389 345 329 343 251 343L214 343L260 614C263 630 264 635 269 646Z" stroke="rgb(208, 2, 27)" stroke-width="8" fill="rgb(208, 2, 27)" style="transform:matrix(0.0136,0,0,-0.0136,0,0);"></path></g><g><g><g><g style="transform:matrix(1,0,0,1,199.3828125,169.7153125);"><path d="M418 -3L418 27L366 30C311 33 301 44 301 96L301 700L60 598L67 548L217 614L217 96C217 44 206 33 152 30L96 27L96 -3C250 0 250 0 261 0C292 0 402 -3 418 -3Z" stroke="rgb(208, 2, 27)" stroke-width="8" fill="rgb(208, 2, 27)" style="transform:matrix(0.009519999999999999,0,0,-0.009519999999999999,0,0);"></path></g></g></g></g></g></g><svg x="191.8359375" style="overflow:visible;" y="149.8046875" height="7" width="13"><path d=" M 13.00 2.95 l -2.80 -2.95 l -0.44 0.46 l 1.71 2.07 h -0.14 v 0.80 h 0.14 l -1.71 2.07 l 0.44 0.46 z  M 0.00 3.29 h 11.50 v -0.80 h -11.50 z" style="fill:rgb(208, 2, 27);stroke-width:1px;stroke:none;"></path></svg></g></g></g><g><g><g><g><g><g style="transform:matrix(1,0,0,1,109.171875,245.4046875);"><path d="M286 646L392 650C454 650 494 641 495 626L503 537L527 537C530 600 537 651 548 689C526 691 498 692 481 692L440 691L275 689L246 689C221 689 181 690 143 691L94 692L91 664L147 662C171 661 182 652 182 635C182 621 178 589 173 559L98 125C81 33 81 32 40 28L4 25L0 -3L34 -2C74 -1 106 0 127 0C145 0 174 -1 213 -2L265 -3L268 25L204 28C177 29 168 37 168 57C168 63 169 74 170 78L206 301L323 301C350 301 381 300 429 298L455 297L474 342L470 349C389 345 329 343 251 343L214 343L260 614C263 630 264 635 269 646Z" stroke="rgb(0, 0, 0)" stroke-width="8" fill="rgb(0, 0, 0)" style="transform:matrix(0.0136,0,0,-0.0136,0,0);"></path></g><g><g><g><g style="transform:matrix(1,0,0,1,116.71875,247.7153125);"><path d="M368 365C371 403 376 435 384 476C373 481 369 482 364 482C333 482 302 458 266 407C227 351 188 291 172 256L204 408C208 425 210 438 210 450C210 470 202 482 187 482C166 482 128 461 54 408L26 388L33 368L65 389C93 407 104 412 113 412C123 412 130 403 130 390C130 332 87 126 47 -2L57 -9C72 -4 88 -1 111 4L124 6L150 126C168 209 191 262 235 319C269 363 296 384 318 384C333 384 343 379 354 365ZM716 111L692 94C639 56 591 36 555 36C508 36 479 73 479 133C479 158 482 185 487 214C504 218 613 248 638 259C723 296 762 342 762 404C762 451 728 482 678 482C610 496 500 423 463 349C433 299 403 180 403 113C403 35 447 -11 519 -11C576 -11 632 17 724 92ZM501 274C518 343 538 386 567 412C585 428 616 440 640 440C669 440 688 420 688 388C688 344 653 297 601 272C573 258 537 247 492 237ZM807 148C802 97 796 62 785 16C823 -2 857 -11 892 -11C941 -11 987 7 1038 47C1089 87 1110 124 1110 174C1110 228 1078 257 1004 271L961 279C901 290 882 307 882 348C882 401 927 442 984 442C1025 442 1063 424 1079 397L1079 342L1102 342C1106 377 1110 404 1121 455C1082 474 1054 482 1021 482C969 482 908 452 860 404C834 377 823 352 823 316C823 260 854 228 920 215L983 203C1027 195 1043 177 1043 138C1043 73 997 29 926 29C891 29 860 40 832 64L832 148Z" stroke="rgb(0, 0, 0)" stroke-width="8" fill="rgb(0, 0, 0)" style="transform:matrix(0.009519999999999999,0,0,-0.009519999999999999,0,0);"></path></g></g></g></g></g></g><svg x="109.171875" style="overflow:visible;" y="229.8046875" height="7" width="19.328125"><path d=" M 19.33 2.95 l -2.80 -2.95 l -0.44 0.46 l 1.71 2.07 h -0.14 v 0.80 h 0.14 l -1.71 2.07 l 0.44 0.46 z  M 0.00 3.29 h 17.83 v -0.80 h -17.83 z" style="fill:rgb(0, 0, 0);stroke-width:1px;stroke:none;"></path></svg></g></g></g><g><g><g><g><g><g style="transform:matrix(1,0,0,1,252.953125,193.4046875);"><path d="M286 646L392 650C454 650 494 641 495 626L503 537L527 537C530 600 537 651 548 689C526 691 498 692 481 692L440 691L275 689L246 689C221 689 181 690 143 691L94 692L91 664L147 662C171 661 182 652 182 635C182 621 178 589 173 559L98 125C81 33 81 32 40 28L4 25L0 -3L34 -2C74 -1 106 0 127 0C145 0 174 -1 213 -2L265 -3L268 25L204 28C177 29 168 37 168 57C168 63 169 74 170 78L206 301L323 301C350 301 381 300 429 298L455 297L474 342L470 349C389 345 329 343 251 343L214 343L260 614C263 630 264 635 269 646Z" stroke="rgb(0, 0, 0)" stroke-width="8" fill="rgb(0, 0, 0)" style="transform:matrix(0.0136,0,0,-0.0136,0,0);"></path></g><g><g><g><g style="transform:matrix(1,0,0,1,260.5,195.7153125);"><path d="M368 365C371 403 376 435 384 476C373 481 369 482 364 482C333 482 302 458 266 407C227 351 188 291 172 256L204 408C208 425 210 438 210 450C210 470 202 482 187 482C166 482 128 461 54 408L26 388L33 368L65 389C93 407 104 412 113 412C123 412 130 403 130 390C130 332 87 126 47 -2L57 -9C72 -4 88 -1 111 4L124 6L150 126C168 209 191 262 235 319C269 363 296 384 318 384C333 384 343 379 354 365ZM716 111L692 94C639 56 591 36 555 36C508 36 479 73 479 133C479 158 482 185 487 214C504 218 613 248 638 259C723 296 762 342 762 404C762 451 728 482 678 482C610 496 500 423 463 349C433 299 403 180 403 113C403 35 447 -11 519 -11C576 -11 632 17 724 92ZM501 274C518 343 538 386 567 412C585 428 616 440 640 440C669 440 688 420 688 388C688 344 653 297 601 272C573 258 537 247 492 237ZM807 148C802 97 796 62 785 16C823 -2 857 -11 892 -11C941 -11 987 7 1038 47C1089 87 1110 124 1110 174C1110 228 1078 257 1004 271L961 279C901 290 882 307 882 348C882 401 927 442 984 442C1025 442 1063 424 1079 397L1079 342L1102 342C1106 377 1110 404 1121 455C1082 474 1054 482 1021 482C969 482 908 452 860 404C834 377 823 352 823 316C823 260 854 228 920 215L983 203C1027 195 1043 177 1043 138C1043 73 997 29 926 29C891 29 860 40 832 64L832 148Z" stroke="rgb(0, 0, 0)" stroke-width="8" fill="rgb(0, 0, 0)" style="transform:matrix(0.009519999999999999,0,0,-0.009519999999999999,0,0);"></path></g></g></g></g></g></g><svg x="252.953125" style="overflow:visible;" y="177.8046875" height="7" width="19.328125"><path d=" M 19.33 2.95 l -2.80 -2.95 l -0.44 0.46 l 1.71 2.07 h -0.14 v 0.80 h 0.14 l -1.71 2.07 l 0.44 0.46 z  M 0.00 3.29 h 17.83 v -0.80 h -17.83 z" style="fill:rgb(0, 0, 0);stroke-width:1px;stroke:none;"></path></svg></g><g style="transform:matrix(1,0,0,1,275.609375,193.4046875);"><path d="M604 347L604 406L65 406L65 347ZM604 134L604 193L65 193L65 134Z" stroke="rgb(0, 0, 0)" stroke-width="8" fill="rgb(0, 0, 0)" style="transform:matrix(0.0136,0,0,-0.0136,0,0);"></path></g><g><g><g><g style="transform:matrix(1,0,0,1,288.6875,193.4046875);"><path d="M286 646L392 650C454 650 494 641 495 626L503 537L527 537C530 600 537 651 548 689C526 691 498 692 481 692L440 691L275 689L246 689C221 689 181 690 143 691L94 692L91 664L147 662C171 661 182 652 182 635C182 621 178 589 173 559L98 125C81 33 81 32 40 28L4 25L0 -3L34 -2C74 -1 106 0 127 0C145 0 174 -1 213 -2L265 -3L268 25L204 28C177 29 168 37 168 57C168 63 169 74 170 78L206 301L323 301C350 301 381 300 429 298L455 297L474 342L470 349C389 345 329 343 251 343L214 343L260 614C263 630 264 635 269 646Z" stroke="rgb(0, 0, 0)" stroke-width="8" fill="rgb(0, 0, 0)" style="transform:matrix(0.0136,0,0,-0.0136,0,0);"></path></g><g><g><g><g style="transform:matrix(1,0,0,1,296.234375,197.7153125);"><path d="M418 -3L418 27L366 30C311 33 301 44 301 96L301 700L60 598L67 548L217 614L217 96C217 44 206 33 152 30L96 27L96 -3C250 0 250 0 261 0C292 0 402 -3 418 -3Z" stroke="rgb(0, 0, 0)" stroke-width="8" fill="rgb(0, 0, 0)" style="transform:matrix(0.009519999999999999,0,0,-0.009519999999999999,0,0);"></path></g></g></g></g></g></g><svg x="288.6875" style="overflow:visible;" y="177.8046875" height="7" width="13"><path d=" M 13.00 2.95 l -2.80 -2.95 l -0.44 0.46 l 1.71 2.07 h -0.14 v 0.80 h 0.14 l -1.71 2.07 l 0.44 0.46 z  M 0.00 3.29 h 11.50 v -0.80 h -11.50 z" style="fill:rgb(0, 0, 0);stroke-width:1px;stroke:none;"></path></svg></g><g style="transform:matrix(1,0,0,1,303.015625,193.4046875);"><path d="M604 241L604 300L364 300L364 538L305 538L305 300L65 300L65 241L305 241L305 0L364 0L364 241Z" stroke="rgb(0, 0, 0)" stroke-width="8" fill="rgb(0, 0, 0)" style="transform:matrix(0.0136,0,0,-0.0136,0,0);"></path></g><g><g><g><g style="transform:matrix(1,0,0,1,314.09375,193.4046875);"><path d="M286 646L392 650C454 650 494 641 495 626L503 537L527 537C530 600 537 651 548 689C526 691 498 692 481 692L440 691L275 689L246 689C221 689 181 690 143 691L94 692L91 664L147 662C171 661 182 652 182 635C182 621 178 589 173 559L98 125C81 33 81 32 40 28L4 25L0 -3L34 -2C74 -1 106 0 127 0C145 0 174 -1 213 -2L265 -3L268 25L204 28C177 29 168 37 168 57C168 63 169 74 170 78L206 301L323 301C350 301 381 300 429 298L455 297L474 342L470 349C389 345 329 343 251 343L214 343L260 614C263 630 264 635 269 646Z" stroke="rgb(0, 0, 0)" stroke-width="8" fill="rgb(0, 0, 0)" style="transform:matrix(0.0136,0,0,-0.0136,0,0);"></path></g><g><g><g><g style="transform:matrix(1,0,0,1,321.640625,197.7153125);"><path d="M16 23L16 -3C203 -3 203 0 239 0C275 0 275 -3 468 -3L468 82C353 77 307 81 122 77L304 270C401 373 431 428 431 503C431 618 353 689 226 689C154 689 105 669 56 619L39 483L68 483L81 529C97 587 133 612 200 612C286 612 341 558 341 473C341 398 299 324 186 204Z" stroke="rgb(0, 0, 0)" stroke-width="8" fill="rgb(0, 0, 0)" style="transform:matrix(0.009519999999999999,0,0,-0.009519999999999999,0,0);"></path></g></g></g></g></g></g><svg x="314.09375" style="overflow:visible;" y="177.8046875" height="7" width="13"><path d=" M 13.00 2.95 l -2.80 -2.95 l -0.44 0.46 l 1.71 2.07 h -0.14 v 0.80 h 0.14 l -1.71 2.07 l 0.44 0.46 z  M 0.00 3.29 h 11.50 v -0.80 h -11.50 z" style="fill:rgb(0, 0, 0);stroke-width:1px;stroke:none;"></path></svg></g></g></g><g><g><g style="transform:matrix(1,0,0,1,253.3828125,213.4046875);"><path d="M286 646L392 650C454 650 494 641 495 626L503 537L527 537C530 600 537 651 548 689C526 691 498 692 481 692L440 691L275 689L246 689C221 689 181 690 143 691L94 692L91 664L147 662C171 661 182 652 182 635C182 621 178 589 173 559L98 125C81 33 81 32 40 28L4 25L0 -3L34 -2C74 -1 106 0 127 0C145 0 174 -1 213 -2L265 -3L268 25L204 28C177 29 168 37 168 57C168 63 169 74 170 78L206 301L323 301C350 301 381 300 429 298L455 297L474 342L470 349C389 345 329 343 251 343L214 343L260 614C263 630 264 635 269 646Z" stroke="rgb(0, 0, 0)" stroke-width="8" fill="rgb(0, 0, 0)" style="transform:matrix(0.0136,0,0,-0.0136,0,0);"></path></g><g><g><g><g style="transform:matrix(1,0,0,1,260.9296875,215.7153125);"><path d="M368 365C371 403 376 435 384 476C373 481 369 482 364 482C333 482 302 458 266 407C227 351 188 291 172 256L204 408C208 425 210 438 210 450C210 470 202 482 187 482C166 482 128 461 54 408L26 388L33 368L65 389C93 407 104 412 113 412C123 412 130 403 130 390C130 332 87 126 47 -2L57 -9C72 -4 88 -1 111 4L124 6L150 126C168 209 191 262 235 319C269 363 296 384 318 384C333 384 343 379 354 365ZM716 111L692 94C639 56 591 36 555 36C508 36 479 73 479 133C479 158 482 185 487 214C504 218 613 248 638 259C723 296 762 342 762 404C762 451 728 482 678 482C610 496 500 423 463 349C433 299 403 180 403 113C403 35 447 -11 519 -11C576 -11 632 17 724 92ZM501 274C518 343 538 386 567 412C585 428 616 440 640 440C669 440 688 420 688 388C688 344 653 297 601 272C573 258 537 247 492 237ZM807 148C802 97 796 62 785 16C823 -2 857 -11 892 -11C941 -11 987 7 1038 47C1089 87 1110 124 1110 174C1110 228 1078 257 1004 271L961 279C901 290 882 307 882 348C882 401 927 442 984 442C1025 442 1063 424 1079 397L1079 342L1102 342C1106 377 1110 404 1121 455C1082 474 1054 482 1021 482C969 482 908 452 860 404C834 377 823 352 823 316C823 260 854 228 920 215L983 203C1027 195 1043 177 1043 138C1043 73 997 29 926 29C891 29 860 40 832 64L832 148Z" stroke="rgb(0, 0, 0)" stroke-width="8" fill="rgb(0, 0, 0)" style="transform:matrix(0.009519999999999999,0,0,-0.009519999999999999,0,0);"></path></g></g></g></g><g style="transform:matrix(1,0,0,1,276.0234375,213.4046875);"><path d="M604 347L604 406L65 406L65 347ZM604 134L604 193L65 193L65 134Z" stroke="rgb(0, 0, 0)" stroke-width="8" fill="rgb(0, 0, 0)" style="transform:matrix(0.0136,0,0,-0.0136,0,0);"></path></g><g style="transform:matrix(1,0,0,1,289.1015625,213.4046875);"><path d="M286 646L392 650C454 650 494 641 495 626L503 537L527 537C530 600 537 651 548 689C526 691 498 692 481 692L440 691L275 689L246 689C221 689 181 690 143 691L94 692L91 664L147 662C171 661 182 652 182 635C182 621 178 589 173 559L98 125C81 33 81 32 40 28L4 25L0 -3L34 -2C74 -1 106 0 127 0C145 0 174 -1 213 -2L265 -3L268 25L204 28C177 29 168 37 168 57C168 63 169 74 170 78L206 301L323 301C350 301 381 300 429 298L455 297L474 342L470 349C389 345 329 343 251 343L214 343L260 614C263 630 264 635 269 646Z" stroke="rgb(0, 0, 0)" stroke-width="8" fill="rgb(0, 0, 0)" style="transform:matrix(0.0136,0,0,-0.0136,0,0);"></path></g><g><g><g><g style="transform:matrix(1,0,0,1,296.6484375,217.7153125);"><path d="M418 -3L418 27L366 30C311 33 301 44 301 96L301 700L60 598L67 548L217 614L217 96C217 44 206 33 152 30L96 27L96 -3C250 0 250 0 261 0C292 0 402 -3 418 -3Z" stroke="rgb(0, 0, 0)" stroke-width="8" fill="rgb(0, 0, 0)" style="transform:matrix(0.009519999999999999,0,0,-0.009519999999999999,0,0);"></path></g></g></g></g><g style="transform:matrix(1,0,0,1,303.4140625,213.4046875);"><path d="M555 243L555 299L51 299L51 243Z" stroke="rgb(0, 0, 0)" stroke-width="8" fill="rgb(0, 0, 0)" style="transform:matrix(0.0136,0,0,-0.0136,0,0);"></path></g><g style="transform:matrix(1,0,0,1,313.6328125,213.4046875);"><path d="M286 646L392 650C454 650 494 641 495 626L503 537L527 537C530 600 537 651 548 689C526 691 498 692 481 692L440 691L275 689L246 689C221 689 181 690 143 691L94 692L91 664L147 662C171 661 182 652 182 635C182 621 178 589 173 559L98 125C81 33 81 32 40 28L4 25L0 -3L34 -2C74 -1 106 0 127 0C145 0 174 -1 213 -2L265 -3L268 25L204 28C177 29 168 37 168 57C168 63 169 74 170 78L206 301L323 301C350 301 381 300 429 298L455 297L474 342L470 349C389 345 329 343 251 343L214 343L260 614C263 630 264 635 269 646Z" stroke="rgb(0, 0, 0)" stroke-width="8" fill="rgb(0, 0, 0)" style="transform:matrix(0.0136,0,0,-0.0136,0,0);"></path></g><g><g><g><g style="transform:matrix(1,0,0,1,321.1796875,217.7153125);"><path d="M16 23L16 -3C203 -3 203 0 239 0C275 0 275 -3 468 -3L468 82C353 77 307 81 122 77L304 270C401 373 431 428 431 503C431 618 353 689 226 689C154 689 105 669 56 619L39 483L68 483L81 529C97 587 133 612 200 612C286 612 341 558 341 473C341 398 299 324 186 204Z" stroke="rgb(0, 0, 0)" stroke-width="8" fill="rgb(0, 0, 0)" style="transform:matrix(0.009519999999999999,0,0,-0.009519999999999999,0,0);"></path></g></g></g></g></g></g></svg>
</svg>
