<svg xmlns="http://www.w3.org/2000/svg" width="388" height="302" style="
        width:388px;
        height:302px;
        background: white;
        fill: none;
">
        <svg xmlns="http://www.w3.org/2000/svg"><g><defs><pattern id=".3528055866321915" width="10" height="10" patternUnits="userSpaceOnUse"><path d="M 10 0 L 0 0 0 10" fill="none" stroke="lightgray" stroke-width="0.5"/></pattern></defs><rect width="100%" height="100%" fill="url(#.3528055866321915)" stroke="lightgray" stroke-width="0.5"/></g></svg>
        <svg xmlns="http://www.w3.org/2000/svg" class="role-diagram-draw-area"><g class="shapes-region" style="stroke: black; fill: none;"><g class="grouped-shape"><g class="composite-shape ignore-highlight axis2d" style="stroke-width: 1; stroke: rgb(0, 0, 0);"><path class="real" d=" M55,242.71 L306.48,242.71 M80.15,33.05 L80.15,266"/><path d=" M299.48,237.71 L306.48,242.71 L299.48,247.71"/><path d=" M75.15,40.05 L80.15,33.05 L85.15,40.05"/></g><g class="arrow-line"><path class="connection real" stroke-dasharray="" d="  M100.69,221.99 L257.02,222.65" style="stroke: rgb(208, 2, 27); stroke-width: 1; fill: none;"/><g stroke="rgba(208,2,27,1)" transform="matrix(-0.9999912270311376,-0.004188777955403942,0.004188777955403942,-0.9999912270311376,259.01603789111454,222.65582911211425)" style="stroke: rgb(208, 2, 27); stroke-width: 1;"><path d=" M10.93,-3.29 Q4.96,-0.45 0,0 Q4.96,0.45 10.93,3.29"/></g></g><g class="arrow-line"><path class="connection real" stroke-dasharray="" d="  M100.69,221.99 L100.47,73.76" style="stroke: rgb(74, 144, 226); stroke-width: 1; fill: none;"/><g stroke="rgba(74,144,226,1)" transform="matrix(0.0015707956808301991,0.9999987662997035,-0.9999987662997035,0.0015707956808301991,100.46437470598894,71.7636119732286)" style="stroke: rgb(74, 144, 226); stroke-width: 1;"><path d=" M10.93,-3.29 Q4.96,-0.45 0,0 Q4.96,0.45 10.93,3.29"/></g></g><g class="arrow-line"><path class="connection real" stroke-dasharray="" d="  M100.69,221.99 L258.5,73.11" style="stroke: rgb(126, 211, 33); stroke-width: 1; fill: none;"/><g stroke="rgba(126,211,33,1)" transform="matrix(-0.727413564262228,0.6861993198242924,-0.6861993198242924,-0.727413564262228,259.95294189453125,71.74125162760416)" style="stroke: rgb(126, 211, 33); stroke-width: 1;"><path d=" M10.93,-3.29 Q4.96,-0.45 0,0 Q4.96,0.45 10.93,3.29"/></g></g><g class="arrow-line"><path class="connection real" stroke-dasharray="1.125 3.35" d="  M259.95,71.74 L259.02,222.66" style="stroke: rgb(0, 0, 0); stroke-width: 1; fill: none;"/></g><g class="arrow-line"><path class="connection real" stroke-dasharray="1.125 3.35" d="  M100.46,71.76 L259.95,71.74" style="stroke: rgb(0, 0, 0); stroke-width: 1; fill: none;"/></g></g><g class="intersections-group"><g style="stroke: rgb(0, 0, 0); stroke-width: 1; fill: none;"/></g></g><g/><g/><!-- react-empty: 32623 --></svg>
        <svg xmlns="http://www.w3.org/2000/svg" width="386" height="300" style="width:386px;height:300px;font-family:Asana-Math, Asana;background:white;"><g><g><g><g><g><g style="transform:matrix(1,0,0,1,64.140625,58.484375);"><path d="M-7 -180C-8 -187 -8 -193 -8 -198C-8 -241 29 -276 74 -276C180 -276 290 -152 349 33L490 473L479 482C450 471 427 465 405 463L370 331C358 284 323 211 290 162C255 111 206 67 184 67C172 67 163 90 164 115L180 322C182 353 184 391 184 419C184 464 177 482 160 482C147 482 133 475 85 442L3 386L14 368L64 398C69 401 80 410 89 410C103 410 111 391 111 358C111 357 111 351 110 343L93 100L92 60C92 18 110 -11 135 -11C172 -11 256 74 331 187L282 16C231 -161 181 -234 111 -234C76 -234 49 -207 49 -172C49 -167 50 -159 51 -150L41 -146Z" stroke="rgb(0, 0, 0)" stroke-width="8" fill="rgb(0, 0, 0)" style="transform:matrix(0.017,0,0,-0.017,0,0);"></path></g></g></g></g></g></g><g><g><g><g><g><g style="transform:matrix(1,0,0,1,280.59375,256);"><path d="M9 1C24 -7 40 -11 52 -11C85 -11 124 18 155 65L231 182L242 113C255 28 278 -11 314 -11C336 -11 368 6 400 35L449 79L440 98C404 68 379 53 363 53C348 53 335 63 325 83C316 102 305 139 300 168L282 269L317 318C364 383 391 406 422 406C438 406 450 398 455 383L469 387L484 472C472 479 463 482 454 482C414 482 374 446 312 354L275 299L269 347C257 446 230 482 171 482C145 482 123 474 114 461L56 378L73 368C103 402 123 416 142 416C175 416 197 375 214 277L225 215L185 153C142 86 108 54 80 54C65 54 54 58 52 63L41 91L21 88C21 53 13 27 9 1Z" stroke="rgb(0, 0, 0)" stroke-width="8" fill="rgb(0, 0, 0)" style="transform:matrix(0.017,0,0,-0.017,0,0);"></path></g></g></g></g></g></g><g><g><g><g><g><g style="transform:matrix(1,0,0,1,268.84375,224.8890625);"><path d="M166 420C187 420 203 421 229 424C118 304 76 221 76 121C76 44 122 -11 186 -11C324 -11 477 236 477 384C477 441 451 482 415 482C402 482 390 478 382 470L332 423L343 404C352 410 361 413 370 413C397 413 413 390 413 350C413 202 316 39 228 39C179 39 148 81 148 146C148 251 187 342 285 464L275 482C255 473 242 470 214 470C186 470 144 472 115 475L103 476C97 477 92 477 91 477C79 477 70 475 59 470C45 443 34 407 21 352L43 352L60 394C67 411 87 422 111 422C144 422 128 420 166 420Z" stroke="rgb(208, 2, 27)" stroke-width="8" fill="rgb(208, 2, 27)" style="transform:matrix(0.0136,0,0,-0.0136,0,0);"></path></g><g><g><g><g style="transform:matrix(1,0,0,1,275.625,229.1996875);"><path d="M263 689C108 689 29 566 29 324C29 207 50 106 85 57C120 8 176 -20 238 -20C389 -20 465 110 465 366C465 585 400 689 263 689ZM245 654C342 654 381 556 381 316C381 103 343 15 251 15C154 15 113 116 113 360C113 571 150 654 245 654ZM508 1C523 -7 539 -11 551 -11C584 -11 623 18 654 65L730 182L741 113C754 28 777 -11 813 -11C835 -11 867 6 899 35L948 79L939 98C903 68 878 53 862 53C847 53 834 63 824 83C815 102 804 139 799 168L781 269L816 318C863 383 890 406 921 406C937 406 949 398 954 383L968 387L983 472C971 479 962 482 953 482C913 482 873 446 811 354L774 299L768 347C756 446 729 482 670 482C644 482 622 474 613 461L555 378L572 368C602 402 622 416 641 416C674 416 696 375 713 277L724 215L684 153C641 86 607 54 579 54C564 54 553 58 551 63L540 91L520 88C520 53 512 27 508 1Z" stroke="rgb(208, 2, 27)" stroke-width="8" fill="rgb(208, 2, 27)" style="transform:matrix(0.009519999999999999,0,0,-0.009519999999999999,0,0);"></path></g></g></g></g></g></g><svg x="268.84375" style="overflow:visible;" y="209.2890625" height="7" width="16.984375"><path d=" M 16.98 2.95 l -2.80 -2.95 l -0.44 0.46 l 1.71 2.07 h -0.14 v 0.80 h 0.14 l -1.71 2.07 l 0.44 0.46 z  M 0.00 3.29 h 15.49 v -0.80 h -15.49 z" style="fill:rgb(208, 2, 27);stroke-width:1px;stroke:none;"></path></svg></g></g></g><g><g><g><g><g><g style="transform:matrix(1,0,0,1,90.1875,56.9046875);"><path d="M166 420C187 420 203 421 229 424C118 304 76 221 76 121C76 44 122 -11 186 -11C324 -11 477 236 477 384C477 441 451 482 415 482C402 482 390 478 382 470L332 423L343 404C352 410 361 413 370 413C397 413 413 390 413 350C413 202 316 39 228 39C179 39 148 81 148 146C148 251 187 342 285 464L275 482C255 473 242 470 214 470C186 470 144 472 115 475L103 476C97 477 92 477 91 477C79 477 70 475 59 470C45 443 34 407 21 352L43 352L60 394C67 411 87 422 111 422C144 422 128 420 166 420Z" stroke="rgb(74, 144, 226)" stroke-width="8" fill="rgb(74, 144, 226)" style="transform:matrix(0.0136,0,0,-0.0136,0,0);"></path></g><g><g><g><g style="transform:matrix(1,0,0,1,96.96875,61.215312499999996);"><path d="M263 689C108 689 29 566 29 324C29 207 50 106 85 57C120 8 176 -20 238 -20C389 -20 465 110 465 366C465 585 400 689 263 689ZM245 654C342 654 381 556 381 316C381 103 343 15 251 15C154 15 113 116 113 360C113 571 150 654 245 654ZM492 -180C491 -187 491 -193 491 -198C491 -241 528 -276 573 -276C679 -276 789 -152 848 33L989 473L978 482C949 471 926 465 904 463L869 331C857 284 822 211 789 162C754 111 705 67 683 67C671 67 662 90 663 115L679 322C681 353 683 391 683 419C683 464 676 482 659 482C646 482 632 475 584 442L502 386L513 368L563 398C568 401 579 410 588 410C602 410 610 391 610 358C610 357 610 351 609 343L592 100L591 60C591 18 609 -11 634 -11C671 -11 755 74 830 187L781 16C730 -161 680 -234 610 -234C575 -234 548 -207 548 -172C548 -167 549 -159 550 -150L540 -146Z" stroke="rgb(74, 144, 226)" stroke-width="8" fill="rgb(74, 144, 226)" style="transform:matrix(0.009519999999999999,0,0,-0.009519999999999999,0,0);"></path></g></g></g></g></g></g><svg x="90.1875" style="overflow:visible;" y="41.3046875" height="7" width="16.984375"><path d=" M 16.98 2.95 l -2.80 -2.95 l -0.44 0.46 l 1.71 2.07 h -0.14 v 0.80 h 0.14 l -1.71 2.07 l 0.44 0.46 z  M 0.00 3.29 h 15.49 v -0.80 h -15.49 z" style="fill:rgb(74, 144, 226);stroke-width:1px;stroke:none;"></path></svg></g></g></g><g><g><g style="transform:matrix(1,0,0,1,120.09375,216.428125);"><path d="M400 -16C446 -16 513 54 545 84L545 97L532 97C513 79 489 55 462 55C417 55 424 184 424 216C474 278 520 343 558 413C551 428 544 444 536 459L525 459C511 391 456 315 420 257C422 336 445 472 332 473C164 473 27 243 24 93C23 33 43 -16 111 -16C203 -16 297 64 357 131C357 96 348 -15 400 -16ZM284 437C371 437 358 224 357 164C314 113 233 28 162 28C109 28 98 70 99 115C100 202 175 437 284 437Z" stroke="rgb(0, 0, 0)" stroke-width="8" fill="rgb(0, 0, 0)" style="transform:matrix(0.0136,0,0,-0.0136,0,0);"></path></g></g></g><g><g><g><g><g><g style="transform:matrix(1,0,0,1,269.125,65.8265625);"><path d="M166 420C187 420 203 421 229 424C118 304 76 221 76 121C76 44 122 -11 186 -11C324 -11 477 236 477 384C477 441 451 482 415 482C402 482 390 478 382 470L332 423L343 404C352 410 361 413 370 413C397 413 413 390 413 350C413 202 316 39 228 39C179 39 148 81 148 146C148 251 187 342 285 464L275 482C255 473 242 470 214 470C186 470 144 472 115 475L103 476C97 477 92 477 91 477C79 477 70 475 59 470C45 443 34 407 21 352L43 352L60 394C67 411 87 422 111 422C144 422 128 420 166 420Z" stroke="rgb(126, 211, 33)" stroke-width="8" fill="rgb(126, 211, 33)" style="transform:matrix(0.0136,0,0,-0.0136,0,0);"></path></g><g><g><g><g style="transform:matrix(1,0,0,1,275.90625,70.1371875);"><path d="M263 689C108 689 29 566 29 324C29 207 50 106 85 57C120 8 176 -20 238 -20C389 -20 465 110 465 366C465 585 400 689 263 689ZM245 654C342 654 381 556 381 316C381 103 343 15 251 15C154 15 113 116 113 360C113 571 150 654 245 654Z" stroke="rgb(126, 211, 33)" stroke-width="8" fill="rgb(126, 211, 33)" style="transform:matrix(0.009519999999999999,0,0,-0.009519999999999999,0,0);"></path></g></g></g></g></g></g><svg x="269.125" style="overflow:visible;" y="50.2265625" height="7" width="12.234375"><path d=" M 12.23 2.95 l -2.80 -2.95 l -0.44 0.46 l 1.71 2.07 h -0.14 v 0.80 h 0.14 l -1.71 2.07 l 0.44 0.46 z  M 0.00 3.29 h 10.74 v -0.80 h -10.74 z" style="fill:rgb(126, 211, 33);stroke-width:1px;stroke:none;"></path></svg></g></g></g></svg>
</svg>
